<?xml version="1.0" encoding="iso-8859-1"?>
<!DOCTYPE svg PUBLIC "-//W3C//DTD SVG 1.1//EN" "http://www.w3.org/Graphics/SVG/1.1/DTD/svg11.dtd">
<svg  version="1.1" xmlns="http://www.w3.org/2000/svg" xmlns:xlink="http://www.w3.org/1999/xlink" x="0px" y="0px" width="512px"
	 height="512px" viewBox="0 0 512 512" enable-background="new 0 0 512 512" xml:space="preserve"><g id="e6c6b53d3c8160b22dad35a0f70b8b56"><path display="inline" d="M244.891,350.225c39.41-7.151,72.281-46.744,79.835-93.947c14.12-1.679,28.24-2.938,42.36-3.558
		c0-13.574,0-27.156,0-40.729c-14.12,0.616-28.24,1.875-42.36,3.559c-7.551-45.758-40.421-76.136-79.835-68.985
		c-39.41,7.149-72.285,46.741-79.835,93.945c-14.12,1.679-28.24,2.938-42.36,3.558c0,13.574,0,27.156,0,40.729
		c14.12-0.616,28.24-1.875,42.36-3.559C172.606,326.996,205.481,357.371,244.891,350.225z M191.938,263.75
		c4.192-0.625,8.379-1.284,12.566-1.957c-0.16-2.096-0.16-4.058-0.16-6.171c0-0.108,0-0.221,0-0.325
		c-0.004-2.447,0-5.06,0.325-7.398c-4.244,0.682-8.488,1.345-12.731,1.983c0-4.626,0-9.252,0-13.877
		c5.112-0.764,10.223-1.571,15.335-2.4c6.548-23.068,23.337-41.762,46.353-45.81c19.905-3.48,31.169,3.836,39.818,14.905
		c-5.06,4.535-10.119,9.1-15.18,13.691c-7.017-8.471-13.708-12.554-25.129-10.562c-11.59,2.022-20.564,11.265-25.133,24.292
		c11.695-2.022,23.389-4.096,35.083-6.11c0,4.626,0,9.251,0,13.873c-12.727,2.191-25.459,4.46-38.186,6.643
		c-0.165,2.148-0.321,4.622-0.321,7.069c0,0.108,0,0.221,0,0.325c0,2.287,0.152,4.383,0.321,6.475
		c12.727-2.183,25.459-4.452,38.186-6.64c0,4.621,0,9.243,0,13.869c-11.747,2.021-23.498,4.104-35.244,6.136
		c4.405,11.968,13.873,18.315,26.596,16.09c10.93-1.905,17.461-8.73,24.968-19.757c4.791,2.694,9.572,5.406,14.363,8.149
		c-9.304,14.983-20.881,26.335-39.497,29.585c-24.148,4.248-41.285-8.5-47.481-30.535c-4.951,0.807-9.898,1.583-14.854,2.325
		C191.938,272.997,191.938,268.376,191.938,263.75z M489.282,133.804c0-9.325,0-18.648,0-27.974
		c-162.929-57.023-325.854,57.025-488.782,0c0,95.042,0,190.083,0,285.123c7.405,2.591,14.813,4.717,22.217,6.635v18.924
		c22.747,4.313,45.494,6.118,68.249,6.118c102.617,0,205.242-35.921,307.854-35.916c37.557,0.004,75.123,4.813,112.68,17.956
		c0-90.289,0-180.577,0-270.866H489.282z M20.864,191.817c4.058,2.196,8.314,3.857,12.732,4.812
		c26.713,5.806,48.366-15.266,48.366-41.863c0-4.416-0.625-8.705-1.74-12.834c109.781,6.954,219.557-38.422,329.338-31.469
		c-1.111,3.983-1.74,8.212-1.74,12.623c0,26.824,21.653,49.067,48.366,54.873c4.417,0.957,8.674,1.374,12.731,1.33
		c0,41.896,0,83.788,0,125.681c-4.062-2.196-8.314-3.854-12.731-4.813c-26.709-5.807-48.366,15.266-48.366,41.865
		c0,4.409,0.62,8.705,1.74,12.832c-109.781-6.956-219.558,38.425-329.338,31.469c1.115-3.983,1.736-8.21,1.74-12.623
		c0-26.826-21.658-49.069-48.366-54.875c-4.413-0.955-8.674-1.372-12.732-1.333C20.864,275.601,20.864,233.708,20.864,191.817z"></path></g></svg>