<?xml version="1.0" encoding="iso-8859-1"?>
<!DOCTYPE svg PUBLIC "-//W3C//DTD SVG 1.1//EN" "http://www.w3.org/Graphics/SVG/1.1/DTD/svg11.dtd">
<svg  version="1.1" xmlns="http://www.w3.org/2000/svg" xmlns:xlink="http://www.w3.org/1999/xlink" x="0px" y="0px" width="512px"
	 height="512px" viewBox="0 0 512 512" style="enable-background:new 0 0 512 512;" xml:space="preserve"><g id="afcae5a789ccd549f9c6e2a2f81b7aaa"><path style="display: inline;" d="M256.219,40.877l30.987,0.98v-0.297c8.87,0.832,20.772,2.286,36.418,4.795
		c63.493,10.179,87.177,29.119,92.429,37.492v244.319c-5.221,13.805-22.184,53.244-55.011,82.21
		c-32.522,28.686-82.159,49.771-105.128,58.582c-26.657-10.21-74.579-31.783-104.952-58.578
		c-32.886-29.017-49.853-68.538-55.015-82.202V83.988c0.771-1.168,2.138-2.946,4.447-5.138c8.706-8.265,31.71-23.477,87.981-32.495
		c15.646-2.509,27.549-3.963,36.419-4.795v0.355L256.219,40.877 M268.672,0.5c-1.43,0-2.716,0.02-3.864,0.059V0.5h-17.615v0.059
		c-1.148-0.039-2.435-0.059-3.864-0.059c-10.617,0-29.342,1.228-61.282,6.346C58.99,26.571,55.935,78.025,55.935,78.025v256.94
		c0,0,18.732,61.458,68.554,105.418C174.7,484.675,256,511.5,256,511.5s81.3-26.825,131.512-71.116
		c49.821-43.96,68.554-105.418,68.554-105.418V78.025c0,0-3.056-51.454-126.111-71.18C298.018,1.728,279.289,0.5,268.672,0.5
		L268.672,0.5z M181.812,341.386L256,301.971l74.188,39.415l-14.169-83.488l60.02-59.133l-82.944-12.188L256,110.614l-37.094,75.963
		l-82.945,12.188l60.02,59.133L181.812,341.386z"></path></g></svg>