<?xml version="1.0" encoding="iso-8859-1"?>
<!DOCTYPE svg PUBLIC "-//W3C//DTD SVG 1.1//EN" "http://www.w3.org/Graphics/SVG/1.1/DTD/svg11.dtd">
<svg  version="1.1" xmlns="http://www.w3.org/2000/svg" xmlns:xlink="http://www.w3.org/1999/xlink" x="0px" y="0px" width="512px"
	 height="512px" viewBox="0 0 512 512" style="enable-background:new 0 0 512 512;" xml:space="preserve"><g id="afcae5a789ccd549f9c6e2a2f81bb0c3"><path style="display: inline; fill-rule: evenodd; clip-rule: evenodd;" d="M4.414,309.406c-6.284-13.969-3.115-28.316-3.115-28.316
		s7.119-1.734,13.216,5.715c5.639,6.887,10.28,22.996,10.28,22.996s8.184-10.924,19.503-6.387
		c11.328,4.537,11.511,18.82,11.511,18.82s16.368-4.309,29.243-14.08c10.929-8.283,18.693-22.277,18.693-22.277
		s-8.513-7.486-6.882-15.055c1.663-7.734,13.457-15.56,13.457-15.56s-7.178-10.368-7.386-24.652
		c-0.258-18.239,6.45-41.369,6.45-41.369s18.202,18.992,27.342,35.14c6.296,11.124,4.616,21.308,4.616,21.308
		s12.937-3.543,20.768,1.015c8.583,4.99,12.122,18.126,12.122,18.126s11.69,1.713,20.273-0.35
		c7.285-1.738,11.686-7.301,11.686-7.301s-0.932-18.427,5.78-27.946c6.441-9.124,20.535-9.374,20.535-9.374
		s-4.063-19.042-1.714-41.419c2.786-26.54,12.052-57.134,12.052-57.134L256,80.159l13.157,41.149c0,0,9.266,30.594,12.056,57.134
		c2.346,22.377-1.717,41.419-1.717,41.419s14.093,0.25,20.534,9.374c6.712,9.519,5.78,27.946,5.78,27.946s4.4,5.563,11.686,7.301
		c8.588,2.063,20.273,0.35,20.273,0.35s3.539-13.136,12.122-18.126c7.83-4.558,20.768-1.015,20.768-1.015
		s-1.681-10.184,4.616-21.308c9.14-16.148,27.342-35.14,27.342-35.14s6.708,23.129,6.45,41.369
		c-0.2,14.285-7.386,24.652-7.386,24.652s11.794,7.826,13.457,15.56c1.626,7.568-6.878,15.055-6.878,15.055
		s7.76,13.994,18.688,22.277c12.874,9.771,29.242,14.08,29.242,14.08s0.184-14.283,11.507-18.82
		c11.319-4.537,19.508,6.387,19.508,6.387s4.641-16.109,10.279-22.996c6.097-7.449,13.216-5.715,13.216-5.715
		s3.169,14.348-3.118,28.316c-8.787,19.523-27.896,40.578-27.896,40.578s-3.077,18.83-9.498,37.705
		C424.611,368.961,345.732,356.564,256,356.564S87.389,368.961,41.811,387.689c-6.421-18.875-9.498-37.705-9.498-37.705
		S13.205,328.93,4.414,309.406z M256,382.113c-83.761,0-158.032,10.805-204.612,27.477c0.063,0.111,0.125,0.236,0.187,0.344
		c7.415,12.535,17.682,18.914,24.224,21.908C122,421.939,185.675,415.818,256,415.818s134,6.121,180.201,16.023
		c6.542-2.994,16.809-9.373,24.224-21.908c0.063-0.107,0.125-0.232,0.188-0.344C414.032,392.918,339.761,382.113,256,382.113z"></path></g></svg>