<?xml version="1.0" encoding="iso-8859-1"?>
<!DOCTYPE svg PUBLIC "-//W3C//DTD SVG 1.1//EN" "http://www.w3.org/Graphics/SVG/1.1/DTD/svg11.dtd">
<svg  version="1.1" xmlns="http://www.w3.org/2000/svg" xmlns:xlink="http://www.w3.org/1999/xlink" x="0px" y="0px" width="512px"
	 height="512px" viewBox="0 0 512 512" style="enable-background:new 0 0 512 512;" xml:space="preserve"><g id="afcae5a789ccd549f9c6e2a2f81b8e67"><path style="display: inline; fill-rule: evenodd; clip-rule: evenodd;" d="M445.92,399.767c-5.323-1.102-56.605-11.577-107.157-16.338
		c-39.788-3.752-82.788-3.369-82.788-3.369s-43.003-0.383-82.792,3.369c-49.308,4.641-99.31,14.721-106.679,16.238v-32.312
		c24.44-4.233,57.405-9.303,90.12-12.384c47.749-4.504,99.351-4.042,99.351-4.042s51.6-0.462,99.348,4.042
		c32.936,3.102,66.112,8.221,90.598,12.467V399.767z M511.5,196.023c0,0-10.945,49.482-28.619,89.983
		c-15.096,34.578-37.318,61.121-37.318,61.121s-53.999-11.356-107.148-16.359c-39.61-3.734-82.414-3.355-82.414-3.355
		s-42.804-0.379-82.414,3.355c-53.15,5.003-107.149,16.359-107.149,16.359s-22.223-26.543-37.318-61.121
		C11.445,245.506,0.5,196.023,0.5,196.023s98.366,24.789,161.609,4.047C226.6,178.92,256,112.233,256,112.233
		s29.4,66.687,93.892,87.837C413.134,220.813,511.5,196.023,511.5,196.023z M90.948,263.991L62,236.054l-9.377,39.128l28.947,27.941
		L90.948,263.991z M278.568,229.471l-25.55-44.712l-25.55,44.712l25.55,44.713L278.568,229.471z M459.377,275.182L450,236.054
		l-28.948,27.938l9.378,39.132L459.377,275.182z"></path></g></svg>