<?xml version="1.0" encoding="iso-8859-1"?>
<!DOCTYPE svg PUBLIC "-//W3C//DTD SVG 1.1//EN" "http://www.w3.org/Graphics/SVG/1.1/DTD/svg11.dtd">
<svg  version="1.1" xmlns="http://www.w3.org/2000/svg" xmlns:xlink="http://www.w3.org/1999/xlink" x="0px" y="0px" width="512px"
	 height="512px" viewBox="0 0 512 512" style="enable-background:new 0 0 512 512;" xml:space="preserve"><g id="9f7e7d65bebc9157b4431a86ec0dd2d0"><path style="display: inline;" d="M483.111,141.498v351.076c0,10.409-8.518,18.926-18.927,18.926H104.593
		c-10.409,0-18.926-8.517-18.926-18.926v-79.016h37.852v60.09h321.74V151.907h-86.109c-15.096,0-27.446-12.352-27.446-27.446V38.352
		H123.519v170.333H85.667V19.426c0-10.409,8.517-18.926,18.926-18.926h236.101v0.065c3.017,0.279,6.587,2.24,10.42,6.071
		l125.861,125.861c3.246,3.246,5.153,6.307,5.833,9.001H483.111z M369.556,246.537v129.17c0,10.408-8.517,18.926-18.927,18.926
		H47.814c-10.409,0-18.926-8.518-18.926-18.926v-129.17c0-10.409,8.517-18.926,18.926-18.926h302.814
		C361.039,227.611,369.556,236.128,369.556,246.537z M140.902,331.885c0-5.541-1.09-10.376-3.271-14.512
		c-2.182-4.133-4.884-7.29-8.106-9.471c-3.228-2.182-6.725-4.199-10.494-6.063c-3.771-1.863-7.268-3.408-10.491-4.635
		c-3.227-1.228-5.929-2.813-8.11-4.77c-2.181-1.951-3.271-4.246-3.271-6.883c0-3.268,1.342-5.832,4.021-7.695
		c2.676-1.863,6.473-2.795,11.378-2.795c4.45,0,8.494,0.865,12.128,2.588c3.634,1.727,5.858,2.592,6.676,2.592
		c2.181,0,3.907-1.08,5.179-3.242s1.907-4.255,1.907-6.277c0-2.147-0.932-4.01-2.795-5.596c-1.862-1.586-4.269-2.754-7.219-3.501
		c-2.953-0.743-5.748-1.278-8.38-1.608c-2.64-0.324-5.135-0.491-7.496-0.491c-4.181,0-8.133,0.488-11.854,1.452
		c-3.727,0.969-7.224,2.492-10.495,4.566c-3.267,2.073-5.881,4.979-7.833,8.712c-1.956,3.733-2.931,8.048-2.931,12.935
		c0,4.357,0.795,8.242,2.384,11.65c1.589,3.404,3.678,6.129,6.269,8.174c2.588,2.043,5.448,3.885,8.583,5.518
		c3.135,1.639,6.247,3.117,9.338,4.433c3.086,1.315,5.925,2.681,8.517,4.085c2.587,1.412,4.676,3.183,6.266,5.315
		c1.589,2.136,2.384,4.565,2.384,7.289c0,3.907-1.453,6.86-4.358,8.86c-2.909,1.996-6.542,2.998-10.9,2.998
		c-3.183,0-6.088-0.569-8.724-1.7c-2.636-1.135-4.654-2.384-6.063-3.752s-2.861-2.621-4.362-3.752c-1.497-1.132-2.839-1.7-4.018-1.7
		c-2,0-3.796,1.072-5.382,3.205c-1.593,2.133-2.388,4.246-2.388,6.336c0,4.18,3.09,8.039,9.267,11.58
		c6.177,3.545,13.581,5.316,22.212,5.316c9.722,0,17.555-2.529,23.506-7.594C137.924,348.394,140.902,341.203,140.902,331.885z
		 M235.606,267.566c0-1.996-1.228-3.723-3.682-5.179c-2.451-1.449-4.95-2.177-7.493-2.177c-3.363,0-5.359,1.179-5.995,3.541
		l-20.712,73.855l-20.852-73.855c-0.636-2.362-2.636-3.541-5.996-3.541c-2.635,0-5.156,0.701-7.563,2.109
		c-2.406,1.409-3.607,3.158-3.607,5.246c0,0.185,0.089,0.639,0.27,1.363l26.301,85.711c1.363,4,5.179,5.996,11.447,5.996
		c2.725,0,5.176-0.521,7.356-1.568c2.181-1.042,3.545-2.518,4.088-4.428l26.164-85.711
		C235.514,268.205,235.606,267.751,235.606,267.566z M275.259,329.434v-38.018c0-10.446,4.768-15.674,14.309-15.674
		c5.179,0,8.765,1.25,10.764,3.749c1.996,2.499,3.135,5.748,3.408,9.743c0.089,3.727,3.043,5.586,8.857,5.586
		c3.086,0,5.334-0.588,6.746-1.771c1.404-1.179,2.11-3.408,2.11-6.676c0-7.995-3.02-14.354-9.063-19.077
		c-6.04-4.725-13.877-7.086-23.506-7.086c-9.356,0-16.919,2.521-22.686,7.563c-5.771,5.042-8.653,12.923-8.653,23.643v38.018
		c0,10.813,2.883,18.716,8.653,23.709c5.767,4.998,13.511,7.494,23.232,7.494c9.718,0,17.488-2.496,23.303-7.494
		c5.811-4.993,8.72-12.896,8.72-23.709v-16.216c0-1.546-0.499-2.884-1.501-4.022c-0.998-1.135-2.362-1.703-4.088-1.703h-23.162
		c-1.638,0-2.954,0.705-3.952,2.114c-1.001,1.408-1.5,3.021-1.5,4.839c0,1.907,0.477,3.541,1.431,4.904
		c0.953,1.361,2.291,2.045,4.021,2.045h11.037v8.039c0,5.176-1.253,9.082-3.748,11.719c-2.499,2.635-6.021,3.951-10.561,3.951
		C279.982,345.104,275.259,339.881,275.259,329.434z"></path></g></svg>