<?xml version="1.0" encoding="iso-8859-1"?>
<!DOCTYPE svg PUBLIC "-//W3C//DTD SVG 1.1//EN" "http://www.w3.org/Graphics/SVG/1.1/DTD/svg11.dtd">
<svg  version="1.1" xmlns="http://www.w3.org/2000/svg" xmlns:xlink="http://www.w3.org/1999/xlink" x="0px" y="0px" width="512px"
	 height="512px" viewBox="0 0 512 512" style="enable-background:new 0 0 512 512;" xml:space="preserve"><g id="9f7e7d65bebc9157b4431a86ec16f99b"><path style="display: inline;" d="M482.808,141.498h0.304v351.076c0,10.409-8.517,18.926-18.926,18.926H104.593
		c-10.409,0-18.926-8.517-18.926-18.926v-79.012h37.852v60.086H445.26V151.907H359.15c-15.097,0-27.446-12.354-27.446-27.446V38.352
		H123.519v170.333H85.667V19.426c0-10.409,8.517-18.926,18.926-18.926h236.101v0.066c3.017,0.277,6.587,2.24,10.421,6.07
		l125.86,125.861C480.221,135.743,482.128,138.804,482.808,141.498z M28.889,375.711V246.537c0-10.409,8.517-18.926,18.926-18.926
		H350.63c10.409,0,18.926,8.517,18.926,18.926v129.174c0,10.408-8.517,18.925-18.926,18.925H47.814
		C37.405,394.636,28.889,386.119,28.889,375.711z M238.741,352.869c0,1.723,0.861,3.091,2.588,4.089
		c1.726,0.998,3.814,1.497,6.269,1.497c2.362,0,4.429-0.499,6.199-1.497s2.658-2.366,2.658-4.089v-37.338h20.848
		c1.727,0,3.068-0.684,4.021-2.044c0.954-1.364,1.431-2.95,1.431-4.769c0-1.996-0.477-3.682-1.431-5.041
		c-0.953-1.365-2.295-2.049-4.021-2.049h-20.848v-27.25h37.607c1.727,0,3.068-0.77,4.021-2.318c0.954-1.541,1.431-3.404,1.431-5.584
		c0-2.093-0.454-3.886-1.363-5.383c-0.91-1.501-2.271-2.248-4.089-2.248h-47.555c-2.093,0-3.907,0.5-5.452,1.498
		c-1.546,1.002-2.314,2.361-2.314,4.088V352.869z M191.046,352.869c0,1.723,0.861,3.091,2.591,4.089
		c1.723,0.998,3.815,1.497,6.266,1.497c2.362,0,4.429-0.499,6.203-1.497c1.771-0.998,2.653-2.366,2.653-4.089v-88.574
		c0-1.818-0.861-3.179-2.587-4.088c-1.727-0.91-3.815-1.361-6.27-1.361c-2.45,0-4.543,0.451-6.266,1.361
		c-1.729,0.909-2.591,2.27-2.591,4.088V352.869z M98.93,266.546c0,2.214,0.499,4.069,1.501,5.578
		c0.998,1.501,2.358,2.255,4.088,2.255h20.031v78.461c0,1.738,0.861,3.105,2.588,4.111c1.726,1.005,3.814,1.504,6.269,1.504
		c2.358,0,4.429-0.499,6.199-1.504c1.771-1.006,2.658-2.373,2.658-4.111v-78.461h19.895c1.726,0,3.086-0.772,4.088-2.321
		c0.998-1.553,1.497-3.386,1.497-5.512c0-2.036-0.477-3.825-1.431-5.378c-0.953-1.549-2.34-2.322-4.154-2.322h-57.64
		c-1.818,0-3.205,0.773-4.158,2.322C99.406,262.721,98.93,264.51,98.93,266.546z"></path></g></svg>