<?xml version="1.0" encoding="iso-8859-1"?>
<!DOCTYPE svg PUBLIC "-//W3C//DTD SVG 1.1//EN" "http://www.w3.org/Graphics/SVG/1.1/DTD/svg11.dtd">
<svg  version="1.1" xmlns="http://www.w3.org/2000/svg" xmlns:xlink="http://www.w3.org/1999/xlink" x="0px" y="0px" width="512px"
	 height="512px" viewBox="0 0 512 512" style="enable-background:new 0 0 512 512;" xml:space="preserve"><g id="9f7e7d65bebc9157b4431a86ec0de659"><path style="display: inline;" d="M483.111,141.498v351.076c0,10.409-8.518,18.926-18.927,18.926H104.593
		c-10.409,0-18.926-8.517-18.926-18.926v-79.016h37.852v60.09h321.74V151.907h-86.109c-15.096,0-27.446-12.352-27.446-27.446V38.352
		H123.519v170.333H85.667V19.426c0-10.409,8.517-18.926,18.926-18.926h236.101v0.065c3.017,0.279,6.587,2.24,10.42,6.071
		l125.861,125.861c3.246,3.246,5.153,6.307,5.833,9.001H483.111z M168.127,324.936h23.562l-11.854-41.833L168.127,324.936z
		 M369.556,246.537v129.17c0,10.408-8.517,18.926-18.927,18.926H47.814c-10.409,0-18.926-8.518-18.926-18.926v-129.17
		c0-10.409,8.517-18.926,18.926-18.926h302.814C361.039,227.611,369.556,236.128,369.556,246.537z M215.778,353.143
		c0-0.181-0.092-0.635-0.273-1.363l-26.301-85.71c-0.543-1.907-1.907-3.382-4.088-4.429c-2.181-1.042-4.632-1.566-7.355-1.566
		c-2.729,0-5.157,0.469-7.294,1.412c-2.133,0.938-3.475,2.27-4.018,3.988l-26.326,85.706c-0.182,0.776-0.273,1.265-0.273,1.456
		c0,2.232,1.349,4.104,4.047,5.607c2.702,1.505,5.538,2.259,8.506,2.259c3.785,0,6.036-1.179,6.754-3.534l5.079-18.135h29.194
		l5.179,18.124c0.632,2.366,2.632,3.545,5.996,3.545c2.543,0,5.042-0.728,7.492-2.181
		C214.551,356.869,215.778,355.143,215.778,353.143z M258.595,266.343c0-1.819-0.861-3.179-2.588-4.089
		c-1.726-0.908-3.814-1.363-6.269-1.363c-2.451,0-4.543,0.455-6.266,1.363c-1.73,0.91-2.592,2.27-2.592,4.089v88.571
		c0,1.727,0.861,3.09,2.592,4.088c1.723,1.002,3.814,1.501,6.266,1.501c2.361,0,4.428-0.499,6.202-1.501
		c1.771-0.998,2.654-2.361,2.654-4.088V266.343z"></path></g></svg>