<?xml version="1.0" encoding="iso-8859-1"?>
<!DOCTYPE svg PUBLIC "-//W3C//DTD SVG 1.1//EN" "http://www.w3.org/Graphics/SVG/1.1/DTD/svg11.dtd">
<svg  version="1.1" xmlns="http://www.w3.org/2000/svg" xmlns:xlink="http://www.w3.org/1999/xlink" x="0px" y="0px" width="512px"
	 height="512px" viewBox="0 0 512 512" style="enable-background:new 0 0 512 512;" xml:space="preserve"><g id="9f7e7d65bebc9157b4431a86ec107130"><path style="display: inline;" d="M482.808,141.498h0.304v351.076c0,10.409-8.518,18.926-18.927,18.926H104.593
		c-10.409,0-18.927-8.517-18.927-18.926v-79.014h37.853v60.088h321.74V151.907h-86.109c-15.096,0-27.446-12.352-27.446-27.446
		V38.352H123.519v170.333H85.666V19.426c0-10.409,8.518-18.926,18.927-18.926h236.101v0.065c3.017,0.279,6.587,2.24,10.42,6.071
		l125.861,125.861C480.221,135.743,482.128,138.804,482.808,141.498z M28.889,375.709V246.537c0-10.409,8.517-18.926,18.926-18.926
		h302.814c10.41,0,18.927,8.517,18.927,18.926v129.172c0,10.408-8.517,18.926-18.927,18.926H47.814
		C37.405,394.635,28.889,386.117,28.889,375.709z M252.499,343.194c0,4.181,3.091,8.04,9.268,11.583s13.58,5.315,22.212,5.315
		c9.722,0,17.555-2.53,23.506-7.593c5.947-5.063,8.927-12.252,8.927-21.568c0-5.541-1.091-10.379-3.271-14.513
		c-2.181-4.133-4.883-7.292-8.106-9.471c-3.227-2.181-6.724-4.2-10.494-6.063c-3.771-1.861-7.268-3.406-10.49-4.634
		c-3.228-1.228-5.93-2.815-8.11-4.769s-3.271-4.247-3.271-6.883c0-3.27,1.342-5.835,4.021-7.697
		c2.677-1.861,6.473-2.795,11.378-2.795c4.451,0,8.495,0.865,12.128,2.59c3.634,1.726,5.859,2.589,6.676,2.589
		c2.182,0,3.907-1.079,5.18-3.24c1.271-2.162,1.907-4.255,1.907-6.278c0-2.146-0.932-4.011-2.795-5.597
		c-1.863-1.584-4.27-2.752-7.219-3.499c-2.954-0.744-5.748-1.28-8.38-1.609c-2.64-0.325-5.135-0.49-7.497-0.49
		c-4.181,0-8.132,0.486-11.854,1.453c-3.726,0.969-7.223,2.492-10.494,4.565c-3.268,2.073-5.881,4.978-7.833,8.712
		c-1.955,3.734-2.931,8.046-2.931,12.933c0,4.36,0.794,8.245,2.384,11.651s3.678,6.131,6.27,8.175
		c2.587,2.044,5.448,3.885,8.583,5.519c3.135,1.636,6.247,3.114,9.337,4.43c3.087,1.318,5.926,2.681,8.517,4.087
		c2.588,1.41,4.677,3.181,6.266,5.315c1.59,2.135,2.385,4.565,2.385,7.289c0,3.908-1.453,6.861-4.358,8.859
		c-2.909,1.998-6.543,2.998-10.901,2.998c-3.183,0-6.088-0.568-8.724-1.701c-2.635-1.133-4.653-2.382-6.062-3.752
		c-1.409-1.365-2.861-2.619-4.362-3.75c-1.497-1.133-2.839-1.7-4.018-1.7c-2,0-3.797,1.07-5.383,3.203
		C253.294,338.993,252.499,341.105,252.499,343.194z M167.884,353.278c0,1.726,0.86,3.091,2.587,4.089
		c1.727,0.999,3.814,1.498,6.27,1.498c2.362,0,4.428-0.499,6.199-1.498c1.771-0.998,2.657-2.363,2.657-4.089v-31.614h15.263
		c9.626,0,17.374-2.497,23.232-7.494c5.859-4.994,8.79-12.809,8.79-23.438v-0.817c0-10.538-2.816-18.28-8.45-23.233
		c-5.633-4.95-13.126-7.427-22.481-7.427H174.56c-2,0-3.612,0.545-4.839,1.636c-1.228,1.088-1.837,2.361-1.837,3.814V353.278z
		 M82.033,353.278c0,1.726,0.772,3.091,2.317,4.089c1.541,0.999,3.36,1.498,5.448,1.498h48.513c1.815,0,3.201-0.771,4.155-2.315
		c0.953-1.546,1.43-3.315,1.43-5.315c0-2.18-0.499-4.041-1.497-5.588c-1.001-1.543-2.365-2.315-4.088-2.315H99.746v-27.39h20.715
		c1.815,0,3.201-0.701,4.155-2.111c0.954-1.409,1.431-2.975,1.431-4.703c0-1.906-0.499-3.563-1.497-4.973
		c-1.002-1.406-2.366-2.113-4.089-2.113H99.746v-27.252h38.565c1.723,0,3.087-0.771,4.088-2.317
		c0.998-1.544,1.497-3.406,1.497-5.585c0-1.998-0.477-3.77-1.43-5.316c-0.954-1.543-2.34-2.315-4.155-2.315H89.799
		c-2.088,0-3.907,0.501-5.448,1.499c-1.545,1-2.317,2.363-2.317,4.088V353.278z M211.42,303.814
		c2.495-2.635,3.745-6.541,3.745-11.721v-1.633c0-5.18-1.25-9.084-3.745-11.721c-2.502-2.633-6.021-3.951-10.561-3.951h-15.263
		v32.977h15.263C205.398,307.766,208.918,306.449,211.42,303.814z"></path></g></svg>