<?xml version="1.0" encoding="iso-8859-1"?>
<!DOCTYPE svg PUBLIC "-//W3C//DTD SVG 1.1//EN" "http://www.w3.org/Graphics/SVG/1.1/DTD/svg11.dtd">
<svg  version="1.1" xmlns="http://www.w3.org/2000/svg" xmlns:xlink="http://www.w3.org/1999/xlink" x="0px" y="0px" width="512px"
	 height="512px" viewBox="0 0 512 512" enable-background="new 0 0 512 512" xml:space="preserve"><g id="c2be471c56fc5b4dd571614bb30611b9"><path display="inline" fill-rule="evenodd" clip-rule="evenodd" d="M315.303,117.779C361.16,94.017,348.809,0.5,348.809,0.5
		s88.17,21.292,109.461,63.875v85.167c0,0-49.279-3.123-42.584,63.875c7.453,74.521-33.289,80.156-29.488,132.874
		c5.635,78.201,29.488,140.08,29.488,140.08s-7.705,11.647-41.742,16.755c-47.465,7.115-117.279,8.375-117.279,8.375
		s-0.247-0.004-0.663-0.013c-0.416,0.009-0.664,0.013-0.664,0.013s-69.813-1.26-117.279-8.375
		c-34.037-5.107-41.745-16.755-41.745-16.755s23.853-61.879,29.49-140.08c3.801-52.718-36.942-58.353-29.49-132.874
		c6.699-66.998-42.583-63.875-42.583-63.875V64.375C75.022,21.792,163.191,0.5,163.191,0.5s-10.479,90.215,33.507,117.279
		C221.953,133.315,288.977,131.423,315.303,117.779z"></path></g></svg>