<?xml version="1.0" encoding="iso-8859-1"?>
<!DOCTYPE svg PUBLIC "-//W3C//DTD SVG 1.1//EN" "http://www.w3.org/Graphics/SVG/1.1/DTD/svg11.dtd">
<svg  version="1.1" xmlns="http://www.w3.org/2000/svg" xmlns:xlink="http://www.w3.org/1999/xlink" x="0px" y="0px" width="512px"
	 height="512px" viewBox="0 0 512 512" enable-background="new 0 0 512 512" xml:space="preserve"><g id="c2be471c56fc5b4dd571614bb3061bbd"><path display="inline" fill-rule="evenodd" clip-rule="evenodd" d="M324.557,133.528C368.575,110.716,336.286,0.5,336.286,0.5
		l28.081,3.952c0,0,4.22,54.877,4.22,80.822c0,26.329,8.044,48.254,8.044,48.254s19.729,23.757,24.125,64.334
		c4.527,41.806-40.405,96.251-36.756,146.861c5.413,75.073,44.664,142.652,44.664,142.652s-7.401,11.183-40.077,16.085
		c-45.567,6.83-112.588,8.04-112.588,8.04s-67.021-1.21-112.587-8.04c-32.676-4.902-40.076-16.085-40.076-16.085
		s35.163-67.579,40.575-142.652c3.648-50.609-37.195-105.055-32.668-146.861c4.396-40.577,24.127-64.334,24.127-64.334
		s8.042-21.925,8.042-48.254c0-25.945,4.222-80.822,4.222-80.822L175.714,0.5c0,0-30.5,107.046,11.727,133.028
		C216.636,151.489,294.12,149.301,324.557,133.528z"></path></g></svg>