<?xml version="1.0" encoding="iso-8859-1"?>
<!DOCTYPE svg PUBLIC "-//W3C//DTD SVG 1.1//EN" "http://www.w3.org/Graphics/SVG/1.1/DTD/svg11.dtd">
<svg  version="1.1" xmlns="http://www.w3.org/2000/svg" xmlns:xlink="http://www.w3.org/1999/xlink" x="0px" y="0px" width="512px"
	 height="512px" viewBox="0 0 512 512" enable-background="new 0 0 512 512" xml:space="preserve"><g id="c2be471c56fc5b4dd571614bb3064af7"><path display="inline" d="M420.278,458.573c-0.304-0.511-31.796-54.294-36.578-120.642c-1.505-20.84,7.861-46.739,16.92-71.79
		c10.027-27.73,19.497-53.923,16.891-77.986c-3.893-35.939-18.975-60.339-25.066-68.925c-1.735-5.641-5.75-20.5-5.75-37.217
		c0-21.998,7.009-48.837,7.082-49.104c1.34-5.084,0.591-10.497-2.085-15.022c-2.675-4.524-7.051-7.794-12.148-9.069L348.61,1.087
		c-1.577-0.394-3.174-0.587-4.768-0.587c-4.172,0-8.287,1.33-11.707,3.868c-4.722,3.502-7.632,8.936-7.924,14.809
		c-0.068,1.313-3.681,64.345-27.357,97.903c-2.656,3.76-12.557,7.554-28.687,7.554c-4.341,0-7.279-0.297-7.309-0.301
		c-0.686-0.069-1.39-0.105-2.092-0.105c-0.712,0-1.424,0.037-2.117,0.111c-0.002,0-2.937,0.295-7.253,0.295
		c-16.132,0-26.032-3.794-28.687-7.556c-19.85-28.127-26.479-80.207-27.358-97.899c-0.292-5.873-3.198-11.309-7.921-14.811
		c-3.42-2.536-7.533-3.868-11.708-3.868c-1.591,0-3.192,0.194-4.766,0.587l-30.932,7.731c-5.104,1.274-9.483,4.543-12.157,9.073
		c-2.675,4.529-3.422,9.944-2.075,15.028c0.067,0.257,7.077,27.097,7.077,49.094c0,16.696-4.002,31.538-5.75,37.221
		c-6.098,8.591-21.176,32.989-25.066,68.919c-2.56,23.629,5.48,49.703,13.99,77.308c7.762,25.174,15.788,51.208,14.255,72.47
		c-4.812,66.758-36.262,120.111-36.579,120.642c-4.572,7.657-3.415,17.435,2.819,23.814c2.526,2.583,16.954,15.746,53.069,21.162
		c44.576,6.684,108.135,7.9,110.818,7.946c0.119,0.004,0.236,0.004,0.355,0.004c0.118,0,0.235,0,0.354-0.004
		c2.684-0.046,66.241-1.263,110.816-7.946c37.841-5.677,48.485-20.556,51.307-26.689
		C423.967,470.976,423.599,464.135,420.278,458.573z M367.04,484.115c-43.814,6.567-108.257,7.73-108.257,7.73
		s-64.443-1.163-108.258-7.73c-31.419-4.714-41.93-15.466-41.93-15.466s34.104-57.119,39.308-129.305
		c3.509-48.663-32.663-108.875-28.31-149.074c4.226-39.016,23.199-61.86,23.199-61.86s7.733-21.082,7.733-46.397
		c0-24.947-7.733-54.129-7.733-54.129l30.932-7.731c0,0,3.443,69.307,30.93,108.257c9.718,13.77,32.005,15.877,44.744,15.877
		c5.624,0,9.386-0.411,9.386-0.411s3.762,0.411,9.385,0.411c12.737,0,35.027-2.109,44.743-15.877
		c27.485-38.951,30.932-108.257,30.932-108.257l30.933,7.731c0,0-7.735,29.182-7.735,54.129c0,25.316,7.735,46.397,7.735,46.397
		s18.97,22.844,23.196,61.86c4.354,40.198-37.385,100.411-33.876,149.074c5.205,72.186,39.308,129.305,39.308,129.305
		S398.459,479.401,367.04,484.115z"></path></g></svg>