<?xml version="1.0" encoding="iso-8859-1"?>
<!DOCTYPE svg PUBLIC "-//W3C//DTD SVG 1.1//EN" "http://www.w3.org/Graphics/SVG/1.1/DTD/svg11.dtd">
<svg  version="1.1" xmlns="http://www.w3.org/2000/svg" xmlns:xlink="http://www.w3.org/1999/xlink" x="0px" y="0px" width="512px"
	 height="512px" viewBox="0 0 512 512" enable-background="new 0 0 512 512" xml:space="preserve"><g id="c2be471c56fc5b4dd571614bb3065a9b"><path display="inline" d="M341.652,20.154c0,0,58.34,19.654,77.994,58.961l23.047,78.616c0,0-0.33-0.021-0.933-0.021
		c-6.449,0-44.029,2.411-38.375,58.983c6.879,68.788-46.21,73.989-42.701,122.652c5.205,72.186,42.701,129.305,42.701,129.305
		s-7.113,10.752-38.532,15.466c-43.814,6.567-108.257,7.73-108.257,7.73s-0.229-0.003-0.612-0.011
		c-0.384,0.008-0.612,0.011-0.612,0.011s-64.443-1.163-108.257-7.73c-31.419-4.714-38.534-15.466-38.534-15.466
		s30.709-57.119,35.913-129.305c3.508-48.663-42.792-53.864-35.913-122.652c5.656-56.568-31.922-58.983-38.375-58.983
		c-0.603,0-0.933,0.021-0.933,0.021l16.258-78.616c19.654-39.308,84.782-58.961,84.782-58.961s-9.673,83.275,30.93,108.257
		c11.28,6.938,31.584,10.111,52.293,10.111c22.091,0,44.643-3.61,57.188-10.111C353.054,106.477,341.652,20.154,341.652,20.154
		 M170.312,0.5c-1.898,0-3.81,0.274-5.675,0.839C157.139,3.6,90.738,24.756,67.952,70.327c-0.762,1.524-1.322,3.14-1.667,4.808
		L50.026,153.75c-1.271,6.142,0.065,12.554,4.274,17.203c3.75,4.144,8.744,6.499,14.203,6.499c0.597,0,1.199-0.029,1.808-0.086
		c1.428,0.025,8.349,0.413,12.973,5.52c5.257,5.812,7.244,16.825,5.741,31.851c-4.46,44.6,10.633,67.628,22.759,86.13
		c8.561,13.063,14.215,21.688,13.105,37.065c-4.816,66.819-33.345,120.895-33.632,121.436c-3.401,6.364-3.05,14.107,0.933,20.126
		c3.591,5.428,15.846,18.633,52.01,24.057c44.576,6.684,108.135,7.9,110.818,7.946c0.117,0.004,0.236,0.004,0.355,0.004
		c0.109,0,0.219,0,0.328-0.004l0.284-0.004l0.284,0.004c0.109,0.004,0.219,0.004,0.328,0.004c0.119,0,0.238,0,0.355-0.004
		c2.683-0.046,66.241-1.263,110.815-7.946c36.168-5.424,48.421-18.629,52.01-24.057c4.338-6.553,4.354-15.059,0.039-21.631
		c-0.33-0.507-34.774-54.032-39.526-119.931c-1.01-13.961,4.533-21.938,15.243-35.972c13.481-17.669,31.945-41.864,27.411-87.224
		c-1.505-15.026,0.484-26.041,5.743-31.851c4.679-5.17,11.712-5.502,12.959-5.52c0.61,0.058,1.217,0.084,1.815,0.084
		c5.739,0,10.971-2.591,14.729-7.103c4.195-5.033,5.205-11.858,3.362-18.146l-23.047-78.615c-0.33-1.123-0.757-2.213-1.282-3.259
		c-23.013-46.027-86.6-67.89-89.295-68.798c-2.054-0.691-4.173-1.029-6.276-1.029c-4.491,0-8.921,1.541-12.49,4.478
		c-5.232,4.307-7.877,11.006-6.998,17.725l0,0c3.074,23.74,2.111,76.552-20.483,88.258c-7.593,3.937-25.427,7.907-48.144,7.907
		c-22.362,0-36.598-3.877-41.997-7.197c-22.615-13.915-24.389-66.138-21.704-89.249c0.764-6.576-1.835-13.095-6.912-17.343
		C179.342,2.082,174.864,0.5,170.312,0.5L170.312,0.5z"></path></g></svg>