<?xml version="1.0" encoding="iso-8859-1"?>
<!DOCTYPE svg PUBLIC "-//W3C//DTD SVG 1.1//EN" "http://www.w3.org/Graphics/SVG/1.1/DTD/svg11.dtd">
<svg  version="1.1" xmlns="http://www.w3.org/2000/svg" xmlns:xlink="http://www.w3.org/1999/xlink" x="0px" y="0px" width="512px"
	 height="512px" viewBox="0 0 512 512" enable-background="new 0 0 512 512" xml:space="preserve"><g id="c2be471c56fc5b4dd571614bb30661d7"><path display="inline" d="M413.718,460.732c-0.333-0.576-34.222-59.842-38.843-123.942c-1.423-19.725,7.848-42.55,16.815-64.625
		c9.688-23.85,19.702-48.509,17.155-72.034c-3.748-34.608-18.271-58.104-24.138-66.372c-1.671-5.432-5.537-19.741-5.537-35.839
		c0-24.469-3.801-74.183-3.963-76.286c-0.681-8.859-7.434-16.052-16.231-17.291l-26.001-3.659c-0.883-0.124-1.767-0.185-2.639-0.185
		c-5.456,0-10.694,2.358-14.316,6.548c-4.203,4.861-5.652,11.52-3.849,17.686c10.384,35.627,15.858,92.116-1.404,101.062
		c-11.082,5.745-34.233,9.604-57.61,9.604c-22.007,0-41.916-3.5-50.723-8.919c-17.47-10.748-12.718-66.075-2.571-101.88
		c1.745-6.156,0.262-12.784-3.944-17.606C192.297,2.84,187.082,0.5,181.655,0.5c-0.874,0-1.754,0.061-2.634,0.185l-26.001,3.659
		c-8.799,1.238-15.551,8.43-16.233,17.291c-0.161,2.103-3.964,51.817-3.964,76.286c0,16.078-3.854,30.37-5.538,35.843
		c-5.872,8.273-20.392,31.768-24.138,66.367c-2.514,23.205,6.465,47.768,15.146,71.521c8.104,22.176,16.484,45.102,15.039,65.14
		c-4.654,64.566-35.179,124.131-35.488,124.727c-3.159,6.095-2.776,13.44,1.013,19.162c3.458,5.227,15.259,17.942,50.083,23.166
		c42.925,6.436,104.129,7.607,106.713,7.651c0.115,0.004,0.228,0.004,0.342,0.004c0.115,0,0.228,0,0.342-0.004
		c2.584-0.044,63.788-1.216,106.711-7.651c34.825-5.224,46.628-17.939,50.084-23.162
		C417.107,474.684,417.333,466.95,413.718,460.732z M360.244,485.129c-42.191,6.325-104.248,7.445-104.248,7.445
		s-62.056-1.12-104.248-7.445c-30.256-4.539-37.107-14.893-37.107-14.893s32.558-62.574,37.569-132.086
		c3.378-46.86-34.44-97.272-30.248-135.982c4.07-37.571,22.339-59.569,22.339-59.569s7.447-20.301,7.447-44.679
		c0-24.023,3.909-74.835,3.909-74.835l26.001-3.66c0,0-28.241,99.117,10.858,123.174c13.078,8.047,36.626,11.725,60.641,11.725
		c25.621,0,51.773-4.186,66.319-11.725c40.757-21.122,10.86-123.174,10.86-123.174l26.001,3.66c0,0,3.906,50.812,3.906,74.835
		c0,24.378,7.449,44.679,7.449,44.679s18.268,21.998,22.338,59.569c4.191,38.709-37.412,89.122-34.034,135.982
		c5.013,69.512,41.356,132.086,41.356,132.086S390.5,480.59,360.244,485.129z"></path></g></svg>