<?xml version="1.0" encoding="iso-8859-1"?>
<!DOCTYPE svg PUBLIC "-//W3C//DTD SVG 1.1//EN" "http://www.w3.org/Graphics/SVG/1.1/DTD/svg11.dtd">
<svg  version="1.1" xmlns="http://www.w3.org/2000/svg" xmlns:xlink="http://www.w3.org/1999/xlink" x="0px" y="0px" width="512px"
	 height="512px" viewBox="0 0 512 512" enable-background="new 0 0 512 512" xml:space="preserve"><g id="c2be471c56fc5b4dd571614bb3064618"><path display="inline" d="M426.913,32.87c-3.289-1.542-27.91-12.302-87.008-18.063c-5.711-0.538-10.966,3.376-12.003,9.054
		C323.034,50.425,272.12,129.25,256,135.569c-16.119-6.32-67.034-85.146-71.9-111.708c-1.04-5.68-6.245-9.612-12.005-9.054
		c-59.08,5.758-83.708,16.514-87.006,18.063C12.902,64.423,1.57,247.193,0.516,267.946c-0.024,0.442-0.02,0.886,0.011,1.323
		l14.951,217.626c0.401,5.828,5.244,10.35,11.083,10.35h54.823c6.099,0,11.057-4.916,11.108-11.018l1.649-197.496l9.601-27.207
		c12.738,107.52-3.992,193.673-4.179,194.61c-0.649,3.263,0.195,6.647,2.306,9.217c2.109,2.573,5.261,4.065,8.587,4.065h291.084
		c0.03,0,0.061,0,0.087,0c6.136,0,11.108-4.973,11.108-11.108c0-1.198-0.187-2.353-0.538-3.433
		c-2.014-11.005-15.878-92.71-3.944-193.356l9.607,27.212l1.645,197.496c0.052,6.102,5.008,11.018,11.108,11.018h54.823
		c5.841,0,10.684-4.521,11.083-10.345l14.953-217.631c0.03-0.438,0.034-0.881,0.013-1.323
		C510.428,247.193,499.098,64.425,426.913,32.87z M475.066,475.028h-33.435l-1.57-188.336c-0.009-1.229-0.226-2.447-0.634-3.606
		l-25.164-71.299c-1.696-4.814-6.448-7.833-11.542-7.359c-5.086,0.49-9.178,4.385-9.925,9.436
		c-0.729,4.958-1.471,9.722-2.213,14.188c-16.78,100.681-7.082,186.986-2.195,219.149H123.611
		c4.886-32.163,14.583-118.469-2.198-219.149c-0.744-4.467-1.482-9.234-2.215-14.192c-0.749-5.051-4.84-8.941-9.922-9.432
		c-5.101-0.486-9.846,2.545-11.542,7.359l-25.162,71.299c-0.41,1.159-0.623,2.378-0.634,3.606l-1.571,188.336H36.931L22.737,268.415
		c2.792-53.122,20.892-193.389,71.364-215.237c0.137-0.059,0.339-0.154,0.473-0.219c0.204-0.097,19.9-9.345,70.618-15.085
		c13.268,36.175,63.53,119.729,90.423,120.041c0.122,0.002,0.252,0.002,0.38-0.002c0.128,0.002,0.258,0,0.388,0.002
		c26.894-0.313,77.155-83.866,90.425-120.041c50.714,5.741,70.406,14.986,70.545,15.051c0.178,0.089,0.36,0.174,0.542,0.254
		c50.428,21.829,68.562,162.111,71.365,215.241L475.066,475.028z"></path></g></svg>