<?xml version="1.0" encoding="iso-8859-1"?>
<!DOCTYPE svg PUBLIC "-//W3C//DTD SVG 1.1//EN" "http://www.w3.org/Graphics/SVG/1.1/DTD/svg11.dtd">
<svg  version="1.1" xmlns="http://www.w3.org/2000/svg" xmlns:xlink="http://www.w3.org/1999/xlink" x="0px" y="0px" width="512px"
	 height="512px" viewBox="0 0 512 512" enable-background="new 0 0 512 512" xml:space="preserve"><g id="c2be471c56fc5b4dd571614bb3064858"><path display="inline" d="M485.411,497.861h-54.914c-6.101,0-11.057-4.917-11.108-11.018l-1.645-197.834l-9.399-26.631
		c-11.833,100.551,2.01,182.082,4.022,193.074c0.352,1.08,0.538,2.234,0.538,3.433c0,6.136-4.973,11.108-11.108,11.108
		c-0.026,0-0.061,0-0.087,0H110.494c-3.326,0-6.479-1.493-8.588-4.066c-2.111-2.568-2.955-5.953-2.306-9.217
		c0.187-0.937,16.926-87.142,4.207-194.758l-9.549,27.057l-1.649,197.834c-0.052,6.101-5.01,11.018-11.108,11.018H26.584
		c-5.841,0-10.684-4.521-11.083-10.35L0.526,269.521c-0.03-0.438-0.035-0.881-0.011-1.323C1.565,247.53,12.807,66.217,84.119,33.245
		c0.2-0.115,0.401-0.224,0.609-0.328c0.961-0.479,24.264-11.838,84.741-17.998c3.574-0.354,7.06,1.007,9.43,3.673
		c2.371,2.667,3.315,6.312,2.538,9.796c-0.188,0.853-0.282,1.573-0.282,2.2c0,14.198,30.477,30.076,71.265,30.076
		c40.79,0,71.265-15.877,71.265-30.076c0-0.642-0.135-1.473-0.412-2.541c-0.911-3.498-0.065-7.221,2.27-9.98
		c2.335-2.758,5.845-4.205,9.473-3.886c66.227,5.945,91.421,18.217,92.463,18.737c0.438,0.219,0.858,0.464,1.258,0.735
		c70.549,34.019,81.705,213.979,82.751,234.543c0.021,0.442,0.018,0.885-0.013,1.327l-14.979,217.986
		C496.095,493.34,491.252,497.861,485.411,497.861z M441.515,475.644h33.526l14.22-206.973
		c-2.804-53.062-20.907-193.252-71.252-215.502c-0.56-0.248-1.089-0.536-1.588-0.863c-4.887-2.014-26.032-9.807-71.261-14.784
		c-5.697,26.298-43.662,45.361-92.74,45.361c-48.557,0-86.235-18.661-92.549-44.528c-41.762,5.148-60.833,12.564-64.584,14.164
		c-0.366,0.212-0.749,0.408-1.146,0.582C43.644,75.135,25.532,215.516,22.737,268.667l14.218,206.977h33.528l1.573-188.674
		c0.011-1.228,0.226-2.447,0.634-3.605l25.116-71.152c1.699-4.814,6.468-7.841,11.543-7.359c5.081,0.49,9.175,4.38,9.922,9.431
		c0.72,4.871,1.447,9.555,2.18,13.951c16.813,100.875,7.091,187.344,2.198,219.542h264.909
		c-4.895-32.197-14.615-118.667,2.195-219.54c0.717-4.283,1.419-8.828,2.127-13.556c0.755-5.047,4.847-8.931,9.928-9.419
		c5.082-0.46,9.838,2.552,11.534,7.362l24.969,70.74c0.408,1.158,0.625,2.378,0.634,3.605L441.515,475.644z"></path></g></svg>