<?xml version="1.0" encoding="iso-8859-1"?>
<!DOCTYPE svg PUBLIC "-//W3C//DTD SVG 1.1//EN" "http://www.w3.org/Graphics/SVG/1.1/DTD/svg11.dtd">
<svg  version="1.1" xmlns="http://www.w3.org/2000/svg" xmlns:xlink="http://www.w3.org/1999/xlink" x="0px" y="0px" width="512px"
	 height="512px" viewBox="0 0 512 512" enable-background="new 0 0 512 512" xml:space="preserve"><g id="c2be471c56fc5b4dd571614bb3063ff2"><path display="inline" d="M333.677,52.784c57.409,5.593,78.459,16.089,78.459,16.089c39.041,19.516,78.072,97.584,78.072,97.584
		l-39.031,78.072l-55.708-18.568c-0.939,6.575-1.888,12.813-2.845,18.568c-19.52,117.104,0,214.689,0,214.689H256H119.377
		c0,0,19.519-97.585,0-214.689c-0.958-5.755-1.908-11.993-2.849-18.568L60.825,244.53l-39.034-78.072
		c0,0,39.034-78.068,78.07-97.584c0,0,21.051-10.496,78.461-16.089C183.207,79.44,237.369,166.458,256,166.458
		C274.63,166.458,328.791,79.44,333.677,52.784 M178.341,31.49c-0.688,0-1.383,0.034-2.083,0.102
		C116.653,37.4,92.875,48.565,90.361,49.819C46.229,71.882,7.067,148.295,2.747,156.935c-2.996,5.995-2.996,13.05,0,19.044
		l39.034,78.072c3.69,7.38,11.17,11.775,19.046,11.775c2.237,0,4.508-0.354,6.73-1.099l31.801-10.598
		c16.941,108.855-0.681,200.003-0.863,200.93c-1.239,6.251,0.385,12.738,4.429,17.661c4.044,4.924,10.08,7.789,16.453,7.789H256
		h136.624c6.38,0,12.422-2.86,16.468-7.793c4.042-4.932,5.66-11.419,4.412-17.674c-0.183-0.91-17.811-92.049-0.86-200.913
		l31.8,10.598c2.226,0.74,4.496,1.099,6.733,1.099c7.876,0,15.353-4.392,19.046-11.775l39.032-78.072
		c2.994-5.994,2.994-13.049,0-19.042c-4.321-8.641-43.482-85.054-87.6-107.107c-2.533-1.264-26.312-12.43-85.916-18.237
		c-0.698-0.066-1.393-0.102-2.083-0.102c-10.168,0-19.055,7.263-20.922,17.456C309.375,67.279,273.49,125.02,256,142.093
		c-17.491-17.073-53.375-74.812-56.735-93.147C197.397,38.753,188.509,31.493,178.341,31.49L178.341,31.49z"></path></g></svg>