<?xml version="1.0" encoding="iso-8859-1"?>
<!DOCTYPE svg PUBLIC "-//W3C//DTD SVG 1.1//EN" "http://www.w3.org/Graphics/SVG/1.1/DTD/svg11.dtd">
<svg  version="1.1" xmlns="http://www.w3.org/2000/svg" xmlns:xlink="http://www.w3.org/1999/xlink" x="0px" y="0px" width="512px"
	 height="512px" viewBox="0 0 512 512" enable-background="new 0 0 512 512" xml:space="preserve"><g id="c2be471c56fc5b4dd571614bb3063500"><path display="inline" d="M333.723,52.782c57.375,5.597,78.413,16.089,78.413,16.089c39.041,19.517,78.072,97.589,78.072,97.589
		l-39.031,78.067l-55.708-18.567c-0.939,6.574-1.888,12.813-2.845,18.567c-19.52,117.104,0,214.692,0,214.692H256H119.377
		c0,0,19.519-97.588,0-214.692c-0.958-5.755-1.908-11.993-2.849-18.567l-55.703,18.567L21.791,166.46
		c0,0,39.034-78.072,78.07-97.589c0,0,21.04-10.492,78.415-16.089C181.757,72.73,215.2,88.388,256,88.388
		C296.799,88.388,330.242,72.73,333.723,52.782 M178.31,31.488c-0.694,0-1.395,0.033-2.1,0.102
		c-59.571,5.812-83.337,16.974-85.851,18.227C46.229,71.88,7.067,148.297,2.747,156.938c-2.996,5.995-2.996,13.05,0,19.044
		l39.034,78.066c3.69,7.379,11.17,11.774,19.046,11.774c2.237,0,4.508-0.354,6.73-1.098l31.801-10.598
		c16.941,108.855-0.681,200.011-0.863,200.934c-1.239,6.25,0.385,12.737,4.429,17.661c4.044,4.928,10.08,7.789,16.453,7.789H256
		h136.624c6.38,0,12.422-2.861,16.468-7.793c4.042-4.933,5.66-11.42,4.412-17.674c-0.183-0.911-17.803-92.062-0.86-200.917
		l31.8,10.598c2.226,0.74,4.496,1.098,6.733,1.098c7.876,0,15.353-4.392,19.046-11.774l39.032-78.068
		c2.994-5.992,2.994-13.047,0-19.042c-4.321-8.642-43.482-85.059-87.6-107.111c-2.528-1.264-26.295-12.426-85.865-18.237
		c-0.699-0.066-1.397-0.102-2.088-0.102c-10.222,0-19.142,7.34-20.946,17.597c-1.452,4.978-21.034,18.011-56.756,18.011
		c-35.764,0-55.351-13.063-56.76-18.027C197.447,38.795,188.536,31.488,178.31,31.488L178.31,31.488z"></path></g></svg>