<?xml version="1.0" encoding="iso-8859-1"?>
<!DOCTYPE svg PUBLIC "-//W3C//DTD SVG 1.1//EN" "http://www.w3.org/Graphics/SVG/1.1/DTD/svg11.dtd">
<svg  version="1.1" xmlns="http://www.w3.org/2000/svg" xmlns:xlink="http://www.w3.org/1999/xlink" x="0px" y="0px" width="512px"
	 height="512px" viewBox="0 0 512 512" style="enable-background:new 0 0 512 512;" xml:space="preserve"><g id="afcae5a789ccd549f9c6e2a2f8145457"><path style="display: inline;" d="M467.448,0.5v59.472H44.552V0.5H467.448z M152.334,167.849
		c30.003-19.077,65.554-30.179,103.666-30.179c38.111,0,73.663,11.103,103.666,30.179l107.782-96.866H44.552L152.334,167.849z
		 M396.966,335.293c0,77.73-63.235,140.966-140.966,140.966s-140.965-63.235-140.965-140.966
		c0-77.729,63.235-140.965,140.965-140.965S396.966,257.564,396.966,335.293z M247.988,390.936v-0.743l36.549-32.46
		c24.862-22.137,37.293-43.57,37.293-64.302c0-15.528-5.101-27.856-15.302-36.983c-10.2-9.125-24.387-13.69-42.558-13.69
		c-19.41,0-36.838,4.999-52.284,14.991v34.443c13.959-12.142,28.579-18.213,43.859-18.213c17.593,0,26.39,8.177,26.39,24.531
		c0,7.352-2.086,14.352-6.257,21c-4.171,6.649-11.378,14.889-21.62,24.718l-50.92,48.69v30.479h116.958v-32.461H247.988z
		 M432.207,335.293c0,97.162-79.045,176.207-176.207,176.207c-97.162,0-176.207-79.045-176.207-176.207
		c0-97.162,79.045-176.207,176.207-176.207C353.162,159.086,432.207,238.131,432.207,335.293z M414.586,335.293
		c0-87.446-71.14-158.586-158.586-158.586S97.414,247.847,97.414,335.293c0,87.446,71.14,158.586,158.586,158.586
		S414.586,422.739,414.586,335.293z"></path></g></svg>