<?xml version="1.0" encoding="iso-8859-1"?>
<!DOCTYPE svg PUBLIC "-//W3C//DTD SVG 1.1//EN" "http://www.w3.org/Graphics/SVG/1.1/DTD/svg11.dtd">
<svg  version="1.1" xmlns="http://www.w3.org/2000/svg" xmlns:xlink="http://www.w3.org/1999/xlink" x="0px" y="0px" width="512px"
	 height="512px" viewBox="0 0 512 512" style="enable-background:new 0 0 512 512;" xml:space="preserve"><g id="afcae5a789ccd549f9c6e2a2f814634c"><path style="display: inline;" d="M467.448,0.5v59.472H44.552V0.5H467.448z M152.334,167.849
		c30.003-19.077,65.554-30.179,103.666-30.179c38.111,0,73.663,11.103,103.666,30.179l107.782-96.866H44.552L152.334,167.849z
		 M396.966,335.293c0,77.73-63.235,140.966-140.966,140.966s-140.965-63.235-140.965-140.966
		c0-77.729,63.235-140.965,140.965-140.965S396.966,257.564,396.966,335.293z M316.379,377.032c0-10.985-3.635-20.257-10.903-27.814
		s-17.18-12.121-29.735-13.69v-0.62c23.541-5.864,35.311-20.401,35.311-43.61c0-13.051-5.059-23.664-15.177-31.842
		c-10.118-8.177-24.263-12.266-42.435-12.266c-16.602,0-31.139,3.141-43.611,9.416v31.965c11.233-7.681,22.797-11.521,34.691-11.521
		c17.758,0,26.637,7.227,26.637,21.682c0,15.362-11.563,23.044-34.69,23.044h-14.743v29.983h15.982
		c12.059,0,21.537,2.147,28.434,6.442c6.897,4.295,10.346,10.407,10.346,18.336c0,7.682-2.788,13.67-8.363,17.965
		c-5.575,4.296-13.36,6.443-23.354,6.443c-15.858,0-29.735-4.337-41.628-13.01v34.071c11.481,5.947,26.389,8.921,44.726,8.921
		c21.393,0,38.16-4.832,50.302-14.496S316.379,393.634,316.379,377.032z M432.207,335.293c0,97.162-79.045,176.207-176.207,176.207
		c-97.162,0-176.207-79.045-176.207-176.207c0-97.162,79.045-176.207,176.207-176.207
		C353.162,159.086,432.207,238.131,432.207,335.293z M414.586,335.293c0-87.446-71.14-158.586-158.586-158.586
		S97.414,247.847,97.414,335.293c0,87.446,71.14,158.586,158.586,158.586S414.586,422.739,414.586,335.293z"></path></g></svg>