<?xml version="1.0" encoding="iso-8859-1"?>
<!DOCTYPE svg PUBLIC "-//W3C//DTD SVG 1.1//EN" "http://www.w3.org/Graphics/SVG/1.1/DTD/svg11.dtd">
<svg  version="1.1" xmlns="http://www.w3.org/2000/svg" xmlns:xlink="http://www.w3.org/1999/xlink" x="0px" y="0px" width="512px"
	 height="512px" viewBox="0 0 512 512" style="enable-background:new 0 0 512 512;" xml:space="preserve"><g id="afcae5a789ccd549f9c6e2a2f8149dfb"><path style="display: inline;" d="M321.834,105.816l9.87-29.612H180.296l9.87,29.612C107.467,133.373,47.814,211.352,47.814,303.314
		C47.814,418.294,141.021,511.5,256,511.5s208.186-93.206,208.186-208.186C464.186,211.352,404.535,133.373,321.834,105.816z
		 M256,473.648c-93.92,0-170.334-76.414-170.334-170.334c0-93.921,76.414-170.333,170.334-170.333s170.333,76.412,170.333,170.333
		C426.333,397.234,349.92,473.648,256,473.648z M331.704,57.278H180.296C180.296,25.92,214.189,0.5,256,0.5
		S331.704,25.92,331.704,57.278z"></path></g></svg>