<?xml version="1.0" encoding="iso-8859-1"?>
<!DOCTYPE svg PUBLIC "-//W3C//DTD SVG 1.1//EN" "http://www.w3.org/Graphics/SVG/1.1/DTD/svg11.dtd">
<svg  version="1.1" xmlns="http://www.w3.org/2000/svg" xmlns:xlink="http://www.w3.org/1999/xlink" x="0px" y="0px" width="512px"
	 height="512px" viewBox="0 0 512 512" style="enable-background:new 0 0 512 512;" xml:space="preserve"><g id="afcae5a789ccd549f9c6e2a2f814d837"><path style="display: inline;" d="M444.935,31.428l-5.925-10.887c0,0-25.699,10.343-35.735,10.343
		C380.271,30.892,279.615,0.5,262.005,0.5c-18.442,0-121.479,32.505-146.488,32.505c-12.388,0-42.358-12.793-42.358-12.793
		l-6.095,11.216C43.714,79.608,29.65,129.341,29.65,183.131C29.65,420.967,222.416,511.5,256,511.5
		c17.61,0,74.017-17.149,126.92-68.115c45.354-43.693,99.43-124.315,99.43-260.254C482.35,123.332,466.298,71.897,444.935,31.428z
		 M322.019,275.671l15.584,91.84L256,324.153l-81.603,43.357l15.584-91.84l-66.019-65.039l91.24-13.402L256,113.675l40.801,83.555
		l91.236,13.402L322.019,275.671z"></path></g></svg>