<?xml version="1.0" encoding="iso-8859-1"?>
<!DOCTYPE svg PUBLIC "-//W3C//DTD SVG 1.1//EN" "http://www.w3.org/Graphics/SVG/1.1/DTD/svg11.dtd">
<svg  version="1.1" xmlns="http://www.w3.org/2000/svg" xmlns:xlink="http://www.w3.org/1999/xlink" x="0px" y="0px" width="512px"
	 height="512px" viewBox="0 0 512 512" style="enable-background:new 0 0 512 512;" xml:space="preserve"><g id="afcae5a789ccd549f9c6e2a2f814f2b9"><path style="display: inline;" d="M444.935,31.428l-5.925-10.887c0,0-25.699,10.343-35.735,10.343
		C380.271,30.892,279.615,0.5,262.005,0.5c-18.442,0-121.479,32.505-146.488,32.505c-12.388,0-42.358-12.793-42.358-12.793
		l-6.095,11.216C43.714,79.608,29.65,129.341,29.65,183.131C29.65,420.967,222.416,511.5,256,511.5
		c17.61,0,74.017-17.149,126.92-68.115c45.354-43.693,99.43-124.315,99.43-260.254C482.35,123.332,466.298,71.897,444.935,31.428z
		 M356.745,416.218c-45.926,44.242-90.879,56.422-100.222,57.49c-25.534-4.469-189.148-82.357-189.148-290.577
		c0-16.825,1.684-33.648,4.893-50.594h367.793c2.965,16.657,4.564,33.592,4.564,50.594
		C444.625,305.803,396.835,377.595,356.745,416.218z"></path></g></svg>