<?xml version="1.0" encoding="iso-8859-1"?>
<!DOCTYPE svg PUBLIC "-//W3C//DTD SVG 1.1//EN" "http://www.w3.org/Graphics/SVG/1.1/DTD/svg11.dtd">
<svg  version="1.1" xmlns="http://www.w3.org/2000/svg" xmlns:xlink="http://www.w3.org/1999/xlink" x="0px" y="0px" width="512px"
	 height="512px" viewBox="0 0 512 512" style="enable-background:new 0 0 512 512;" xml:space="preserve"><g id="afcae5a789ccd549f9c6e2a2f814d265"><path style="display: inline;" d="M256,511.5c-33.584,0-226.35-90.533-226.35-328.369c0-53.79,14.064-103.522,37.414-151.703
		l6.095-11.216c0,0,29.97,12.793,42.358,12.793c25.009,0,128.045-32.505,146.488-32.505c17.61,0,118.267,30.392,141.27,30.384
		c10.036,0,35.735-10.343,35.735-10.343l5.925,10.887c21.363,40.47,37.415,91.904,37.415,151.703
		c0,135.938-54.075,216.561-99.43,260.254C330.017,494.351,273.61,511.5,256,511.5L256,511.5z"></path></g></svg>