<?xml version="1.0" encoding="iso-8859-1"?>
<!DOCTYPE svg PUBLIC "-//W3C//DTD SVG 1.1//EN" "http://www.w3.org/Graphics/SVG/1.1/DTD/svg11.dtd">
<svg  version="1.1" xmlns="http://www.w3.org/2000/svg" xmlns:xlink="http://www.w3.org/1999/xlink" x="0px" y="0px" width="512px"
	 height="512px" viewBox="0 0 512 512" enable-background="new 0 0 512 512" xml:space="preserve"><g id="c2be471c56fc5b4dd571614bb30680ab"><path display="inline" d="M414.274,23.111h-19.803L373.849,2.488c-2.442-2.447-6.333-2.661-9.035-0.501L256,89.04L147.185,1.987
		c-2.703-2.159-6.591-1.945-9.033,0.501l-20.624,20.623H97.726c-28.676,0-52.004,23.331-52.004,52.004v384.38
		c0,28.674,23.328,52.004,52.004,52.004h316.548c28.678,0,52.004-23.33,52.004-52.004V75.116
		C466.278,46.442,442.952,23.111,414.274,23.111z M368.55,16.373l14.383,14.385L301.221,153.33l-36.128-54.193L368.55,16.373z
		 M143.451,16.373l103.457,82.765l-36.128,54.193L129.065,30.758L143.451,16.373z M452.712,459.496
		c0,21.192-17.24,38.438-38.438,38.438H97.726c-21.195,0-38.438-17.245-38.438-38.438V75.116c0-21.193,17.243-38.438,38.438-38.438
		h18.98l88.429,132.643c1.258,1.888,3.376,3.021,5.644,3.021s4.385-1.133,5.644-3.021l9.287-13.929
		c3.873,4.666,9.989,7.945,15.803,7.945h28.977c5.816,0,11.928-3.277,15.806-7.942l9.282,13.926
		c1.259,1.888,3.374,3.021,5.644,3.021c2.271,0,4.386-1.133,5.645-3.021l88.429-132.643h18.98c21.197,0,38.438,17.245,38.438,38.438
		V459.496z M310.442,417.004l-3.348-31.51l-5.034-47.257l-3.353-31.509l-5.029-47.266l-3.353-31.505l-3.828-36.031
		c-0.839-7.847-8.037-14.255-16.009-14.255h-28.977c-7.969,0-15.171,6.408-16.006,14.255l-1.409,13.222l-3.115,29.283l-4.672,43.918
		l-3.116,29.278l-4.672,43.923l-3.118,29.279l-4.672,43.923l-1.17,10.987c-0.835,7.843,4.317,17.135,11.442,20.663l14.909,7.37
		l17.128,8.479c3.563,1.753,8.26,2.641,12.959,2.641c0.645,0,1.285-0.062,1.93-0.093c4.032-0.207,7.958-1.028,11.029-2.548
		l28.605-14.154l3.432-1.695c7.123-3.528,12.276-12.82,11.442-20.663L310.442,417.004z M238.154,209.989l37.052,12.763l3.352,31.509
		l-43.521-14.993L238.154,209.989z M230.364,283.19l53.224,18.327l3.352,31.509l-59.69-20.553L230.364,283.19z M262.474,459.43
		c-1.051,0.521-3.38,1.13-6.474,1.13c-3.093,0-5.423-0.609-6.48-1.13l-32.03-15.841c-1.711-0.853-3.718-4.47-3.518-6.346
		l0.815-7.649l63.678,21.927L262.474,459.43z M219.459,385.667l3.115-29.279l69.396,23.904l3.352,31.51L219.459,385.667z"></path></g></svg>