<?xml version="1.0" encoding="iso-8859-1"?>
<!DOCTYPE svg PUBLIC "-//W3C//DTD SVG 1.1//EN" "http://www.w3.org/Graphics/SVG/1.1/DTD/svg11.dtd">
<svg  version="1.1" xmlns="http://www.w3.org/2000/svg" xmlns:xlink="http://www.w3.org/1999/xlink" x="0px" y="0px" width="512px"
	 height="512px" viewBox="0 0 512 512" enable-background="new 0 0 512 512" xml:space="preserve"><g id="c2be471c56fc5b4dd571614bb30678e5"><path display="inline" d="M414.206,23.327h-19.473L373.956,2.554c-2.518-2.529-6.541-2.748-9.332-0.518L256,88.937l-108.626-86.9
		c-2.79-2.23-6.806-2.012-9.331,0.518l-20.777,20.772H97.794c-28.664,0-51.981,23.317-51.981,51.981v384.211
		c0,28.664,23.317,51.981,51.981,51.981h135.604h45.203h135.604c28.663,0,51.98-23.317,51.98-51.981V75.308
		C466.187,46.644,442.869,23.327,414.206,23.327z M226.618,497.943H97.794c-21.185,0-38.42-17.241-38.42-38.425V75.308
		c0-21.183,17.235-38.42,38.42-38.42h18.704l88.472,132.708c1.3,1.95,3.487,3.12,5.83,3.12s4.529-1.17,5.83-3.12l9.989-14.984
		V497.943z M210.799,153.079l-81.388-122.08l14.106-14.104l103.091,82.472L210.799,153.079z M271.818,497.943h-31.639V134.27
		L256,110.54l15.818,23.726V497.943z M265.392,99.367l103.091-82.472l14.104,14.104l-81.383,122.08L265.392,99.367z
		 M452.626,459.519c0,21.184-17.237,38.425-38.42,38.425H285.38V154.606l9.993,14.989c1.301,1.95,3.485,3.12,5.83,3.12
		s4.529-1.17,5.829-3.12l88.472-132.708h18.702c21.183,0,38.42,17.237,38.42,38.42V459.519z M256,165.709
		c6.24,0,11.299,5.059,11.299,11.303c0,6.24-5.059,11.298-11.299,11.298c-6.245,0-11.303-5.059-11.303-11.298
		C244.697,170.768,249.755,165.709,256,165.709z M267.677,267.678c0,6.45-5.227,11.677-11.677,11.677
		c-6.45,0-11.677-5.227-11.677-11.677c0-6.449,5.228-11.677,11.677-11.677C262.45,256.001,267.677,261.229,267.677,267.678z
		 M267.677,361.094c0,6.45-5.227,11.678-11.677,11.678c-6.45,0-11.677-5.228-11.677-11.678c0-6.449,5.228-11.677,11.677-11.677
		C262.45,349.417,267.677,354.645,267.677,361.094z M267.677,454.511c0,6.449-5.227,11.677-11.677,11.677
		c-6.45,0-11.677-5.228-11.677-11.677c0-6.45,5.228-11.678,11.677-11.678C262.45,442.833,267.677,448.061,267.677,454.511z"></path></g></svg>