<?xml version="1.0" encoding="iso-8859-1"?>
<!DOCTYPE svg PUBLIC "-//W3C//DTD SVG 1.1//EN" "http://www.w3.org/Graphics/SVG/1.1/DTD/svg11.dtd">
<svg  version="1.1" xmlns="http://www.w3.org/2000/svg" xmlns:xlink="http://www.w3.org/1999/xlink" x="0px" y="0px" width="512px"
	 height="512px" viewBox="0 0 512 512" enable-background="new 0 0 512 512" xml:space="preserve"><g id="c2be471c56fc5b4dd571614bb305f35d"><path display="inline" d="M511.5,269.102L495.841,497h-57.414l-1.741-208.766l-26.1-73.959c-0.744,5.014-1.497,9.835-2.254,14.37
		c-21.744,130.479,0,239.218,0,239.218H256.109H103.882c0,0,21.744-108.738,0-239.218c-0.778-4.663-1.549-9.631-2.317-14.799
		L75.31,288.234L73.569,497h-57.41L0.5,269.102c0,0,10.426-205.037,81.639-236.113c0-0.006-0.004-0.061-0.004-0.061
		s23.456-11.692,87.421-17.926c5.441,29.7,65.794,126.661,86.554,126.661c20.756,0,81.104-96.964,86.546-126.663
		c63.97,6.236,87.429,17.928,87.429,17.928s-0.008,0.113-0.013,0.162C501.089,64.481,511.5,269.102,511.5,269.102z"></path></g></svg>