<?xml version="1.0" encoding="iso-8859-1"?>
<!DOCTYPE svg PUBLIC "-//W3C//DTD SVG 1.1//EN" "http://www.w3.org/Graphics/SVG/1.1/DTD/svg11.dtd">
<svg  version="1.1" xmlns="http://www.w3.org/2000/svg" xmlns:xlink="http://www.w3.org/1999/xlink" x="0px" y="0px" width="512px"
	 height="512px" viewBox="0 0 512 512" enable-background="new 0 0 512 512" xml:space="preserve"><g id="c2be471c56fc5b4dd571614bb306915e"><path display="inline" d="M200.56,20.096C196.967,9.32,203.324,0.5,214.686,0.5h82.63c11.361,0,17.716,8.82,14.125,19.596
		l-7.594,22.779c-3.59,10.776-15.827,19.596-27.188,19.596h-41.316c-11.361,0-23.596-8.819-27.189-19.596L200.56,20.096z
		 M320.151,484.852l-4.891,2.445l-40.785,20.391c-4.382,2.191-9.978,3.381-15.727,3.68c-0.916,0.049-1.828,0.133-2.75,0.133
		c-6.697,0-13.397-1.271-18.477-3.813L213.1,495.479l-21.252-10.627c-10.161-5.084-17.504-18.482-16.314-29.783l1.667-15.836
		l6.663-63.299l4.442-42.201l6.663-63.299l4.444-42.202l6.661-63.298l4.442-42.198l2.007-19.063
		c1.19-11.301,11.458-20.544,22.819-20.544h41.316c11.361,0,21.625,9.243,22.819,20.544l5.463,51.937l4.781,45.405l7.169,68.116
		l4.781,45.412l7.17,68.113l4.78,45.412l2.845,27C337.653,466.369,330.31,479.768,320.151,484.852z M226.111,171.909l62.05,21.601
		l-4.781-45.409l-52.827-18.39L226.111,171.909z M215.006,277.41l85.105,29.625l-4.781-45.408l-75.882-26.419L215.006,277.41z
		 M288.027,477.814l-90.79-31.605l-1.16,11.021c-0.286,2.711,2.572,7.924,5.013,9.146l45.669,22.832
		c1.507,0.754,4.828,1.635,9.239,1.635s7.732-0.881,9.233-1.631L288.027,477.814z M312.062,420.564l-4.781-45.414l-98.937-34.441
		l-4.442,42.201L312.062,420.564z"></path></g></svg>