<?xml version="1.0" encoding="iso-8859-1"?>
<!DOCTYPE svg PUBLIC "-//W3C//DTD SVG 1.1//EN" "http://www.w3.org/Graphics/SVG/1.1/DTD/svg11.dtd">
<svg  version="1.1" xmlns="http://www.w3.org/2000/svg" xmlns:xlink="http://www.w3.org/1999/xlink" x="0px" y="0px" width="512px"
	 height="512px" viewBox="0 0 512 512" enable-background="new 0 0 512 512" xml:space="preserve"><g id="c2be471c56fc5b4dd571614bb3068eff"><path display="inline" d="M239.449,20.096C235.859,9.319,242.212,0.5,253.575,0.5h82.628c11.361,0,17.716,8.819,14.125,19.596
		l-7.593,22.779c-3.591,10.776-15.828,19.596-27.189,19.596h-41.314c-11.361,0-23.598-8.82-27.189-19.596L239.449,20.096z
		 M136.519,262.154v48.201h48.197l28.697-43.045l9.655-91.706L136.519,262.154z M375.354,455.068l-36.989-351.396
		c-1.189-11.301-11.458-20.544-22.819-20.544h-41.314c-11.361,0-21.629,9.243-22.82,20.544l-36.989,351.396
		c-1.189,11.301,6.153,24.699,16.313,29.783l45.679,22.836c10.159,5.084,26.79,5.084,36.949,0l45.68-22.836
		C369.202,479.768,376.545,466.369,375.354,455.068z"></path></g></svg>