<?xml version="1.0" encoding="iso-8859-1"?>
<!DOCTYPE svg PUBLIC "-//W3C//DTD SVG 1.1//EN" "http://www.w3.org/Graphics/SVG/1.1/DTD/svg11.dtd">
<svg  version="1.1" xmlns="http://www.w3.org/2000/svg" xmlns:xlink="http://www.w3.org/1999/xlink" x="0px" y="0px" width="512px"
	 height="512px" viewBox="0 0 512 512" enable-background="new 0 0 512 512" xml:space="preserve"><g id="c2be471c56fc5b4dd571614bb30610db"><path display="inline" d="M468.917,243.485l-60.769-20.257c-1.023,7.174-2.059,13.979-3.106,20.257
		c-21.292,127.75,0,234.208,0,234.208H256H106.958c0,0,21.292-106.458,0-234.208c-1.046-6.277-2.085-13.083-3.109-20.257
		l-60.766,20.257L0.5,158.318c0,0,42.583-85.167,85.167-106.458c0,0,22.966-11.448,85.595-17.554
		c5.327,29.081,64.414,124.012,84.738,124.012c20.327,0,79.411-94.931,84.738-124.012c62.628,6.105,85.595,17.554,85.595,17.554
		C468.917,73.151,511.5,158.318,511.5,158.318L468.917,243.485z"></path></g></svg>