<?xml version="1.0" encoding="iso-8859-1"?>
<!DOCTYPE svg PUBLIC "-//W3C//DTD SVG 1.1//EN" "http://www.w3.org/Graphics/SVG/1.1/DTD/svg11.dtd">
<svg  version="1.1" xmlns="http://www.w3.org/2000/svg" xmlns:xlink="http://www.w3.org/1999/xlink" x="0px" y="0px" width="512px"
	 height="512px" viewBox="0 0 512 512" enable-background="new 0 0 512 512" xml:space="preserve"><g id="c2be471c56fc5b4dd571614bb305f533"><path display="inline" d="M468.917,243.482l-60.769-20.256c-1.023,7.173-2.059,13.979-3.106,20.256
		c-21.292,127.75,0,234.209,0,234.209H256H106.958c0,0,21.292-106.459,0-234.209c-1.046-6.277-2.085-13.083-3.109-20.256
		l-60.766,20.256L0.5,158.316c0,0,42.583-85.167,85.167-106.459c0,0,22.953-11.442,85.545-17.549
		C175.008,56.07,211.489,73.149,256,73.149c44.509,0,80.991-17.079,84.788-38.841c62.59,6.106,85.545,17.549,85.545,17.549
		C468.917,73.149,511.5,158.316,511.5,158.316L468.917,243.482z"></path></g></svg>